<?xml version="1.0" encoding="iso-8859-1"?>
<!-- Uploaded to: SVG Repo, www.svgrepo.com, Generator: SVG Repo Mixer Tools -->
<svg fill="#000000" version="1.1" id="Layer_1" xmlns="http://www.w3.org/2000/svg" xmlns:xlink="http://www.w3.org/1999/xlink" 
	 viewBox="0 0 512 512" xml:space="preserve">
<g>
	<g>
		<path d="M256,145.455c-60.955,0-110.545,49.591-110.545,110.545S195.045,366.545,256,366.545S366.545,316.955,366.545,256
			S316.955,145.455,256,145.455z"/>
	</g>
</g>
<g>
	<g>
		<rect x="238.545" width="34.909" height="110.545"/>
	</g>
</g>
<g>
	<g>
		
			<rect x="96.617" y="58.787" transform="matrix(0.7071 -0.7071 0.7071 0.7071 -47.2416 114.068)" width="34.909" height="110.544"/>
	</g>
</g>
<g>
	<g>
		<rect y="238.545" width="110.545" height="34.909"/>
	</g>
</g>
<g>
	<g>
		
			<rect x="58.792" y="380.491" transform="matrix(0.7071 -0.7071 0.7071 0.7071 -247.9811 197.2111)" width="110.544" height="34.909"/>
	</g>
</g>
<g>
	<g>
		<rect x="238.545" y="401.455" width="34.909" height="110.545"/>
	</g>
</g>
<g>
	<g>
		
			<rect x="380.474" y="342.659" transform="matrix(0.7071 -0.7071 0.7071 0.7071 -164.829 397.9294)" width="34.909" height="110.544"/>
	</g>
</g>
<g>
	<g>
		<rect x="401.455" y="238.545" width="110.545" height="34.909"/>
	</g>
</g>
<g>
	<g>
		
			<rect x="342.664" y="96.61" transform="matrix(0.7071 -0.7071 0.7071 0.7071 35.8969 314.7917)" width="110.544" height="34.909"/>
	</g>
</g>
</svg>