<?xml version="1.0" encoding="utf-8"?>

<!-- Uploaded to: SVG Repo, www.svgrepo.com, Generator: SVG Repo Mixer Tools -->
<svg version="1.1" id="Icons" xmlns="http://www.w3.org/2000/svg" xmlns:xlink="http://www.w3.org/1999/xlink" 
	 viewBox="0 0 32 32" xml:space="preserve">
<style type="text/css">
	.st0{fill:none;stroke:#000000;stroke-width:2;stroke-linecap:round;stroke-linejoin:round;stroke-miterlimit:10;}
	.st1{fill:none;stroke:#000000;stroke-width:2;stroke-linecap:round;stroke-linejoin:round;}
	.st2{fill:none;stroke:#000000;stroke-width:2;stroke-linecap:round;stroke-linejoin:round;stroke-dasharray:6,6;}
	.st3{fill:none;stroke:#000000;stroke-width:2;stroke-linecap:round;stroke-linejoin:round;stroke-dasharray:4,4;}
	.st4{fill:none;stroke:#000000;stroke-width:2;stroke-linecap:round;}
	.st5{fill:none;stroke:#000000;stroke-width:2;stroke-linecap:round;stroke-dasharray:3.1081,3.1081;}
	
		.st6{fill:none;stroke:#000000;stroke-width:2;stroke-linecap:round;stroke-linejoin:round;stroke-miterlimit:10;stroke-dasharray:4,3;}
</style>
<rect x="4" y="4" class="st0" width="24" height="24"/>
<path class="st0" d="M4,25l4.9-4c3.1-2.5,7.3-3,11-1.4l0,0c2,0.9,4.2,1.1,6.4,0.7L28,20"/>
<path class="st0" d="M4,13l7-3.2c2.6-1.2,5.5-1.3,8.1-0.3l2.1,0.8c1.2,0.4,2.5,0.7,3.7,0.7H28"/>
<path class="st0" d="M24,4l-0.8,1.2C18.7,11.9,17.9,20.5,21,28l0,0"/>
<path class="st0" d="M14,4L14,4c-4.8,7.3-4.8,16.7,0,24l0,0"/>
</svg>