<?xml version="1.0" encoding="iso-8859-1"?>
<!DOCTYPE svg PUBLIC "-//W3C//DTD SVG 1.1//EN" "http://www.w3.org/Graphics/SVG/1.1/DTD/svg11.dtd">
<!-- Uploaded to: SVG Repo, www.svgrepo.com, Generator: SVG Repo Mixer Tools -->
<svg fill="#000000"  version="1.1" xmlns="http://www.w3.org/2000/svg" xmlns:xlink="http://www.w3.org/1999/xlink"  width="800px"
	 height="800px" viewBox="0 0 512 512" xml:space="preserve">

<g id="7935ec95c421cee6d86eb22ecd12b5bb">

<path style="display: inline;" d="M505.705,421.851c0,49.528-40.146,89.649-89.637,89.649c-49.527,0-89.662-40.121-89.662-89.649
		c0-1.622,0.148-3.206,0.236-4.815l-177.464-90.474c-14.883,11.028-33.272,17.641-53.221,17.641
		c-49.528,0-89.662-40.134-89.662-89.649s40.134-89.649,89.662-89.649c22.169,0,42.429,8.097,58.086,21.433l172.774-88.09
		c-0.25-2.682-0.412-5.364-0.412-8.097c0-49.503,40.135-89.649,89.662-89.649c49.49,0,89.637,40.146,89.637,89.649
		c0,49.516-40.146,89.65-89.637,89.65c-22.082,0-42.242-8.009-57.861-21.221l-172.999,88.215c0.224,2.558,0.387,5.14,0.387,7.76
		c0,4.653-0.474,9.182-1.148,13.648l171.389,87.379c15.92-14.472,37.004-23.379,60.232-23.379
		C465.559,332.201,505.705,372.348,505.705,421.851z">

</path>

</g>

</svg>