<?xml version="1.0" ?><!-- Uploaded to: SVG Repo, www.svgrepo.com, Generator: SVG Repo Mixer Tools -->
<svg width="800px" height="800px" viewBox="0 0 24 24" fill="none" xmlns="http://www.w3.org/2000/svg"><path d="M7 8H17M7 11H17M7 14H11M12.7071 20.2929L14.4142 18.5858C14.7893 18.2107 15.298 18 15.8284 18H19C20.1046 18 21 17.1046 21 16V6C21 4.89543 20.1046 4 19 4H5C3.89543 4 3 4.89543 3 6V16C3 17.1046 3.89543 18 5 18H8.17157C8.70201 18 9.21071 18.2107 9.58579 18.5858L11.2929 20.2929C11.6834 20.6834 12.3166 20.6834 12.7071 20.2929Z" stroke="#000000" stroke-linecap="round" stroke-linejoin="round" stroke-width="2"/></svg>